<svg width="237" height="237" viewBox="0 0 237 237" fill="none" xmlns="http://www.w3.org/2000/svg">
<g opacity="0.3">
<path d="M0 0H6.40541V6.40541H0V0Z" fill="#C4C4C4"/>
<path d="M38.4324 0H44.8378V6.40541H38.4324V0Z" fill="#C4C4C4"/>
<path d="M76.8649 0H83.2703V6.40541H76.8649V0Z" fill="#C4C4C4"/>
<path d="M115.297 0H121.703V6.40541H115.297V0Z" fill="#C4C4C4"/>
<path d="M153.73 0H160.135V6.40541H153.73V0Z" fill="#C4C4C4"/>
<path d="M192.162 0H198.568V6.40541H192.162V0Z" fill="#C4C4C4"/>
<path d="M230.595 0H237V6.40541H230.595V0Z" fill="#C4C4C4"/>
<path d="M0 38.4324H6.40541V44.8378H0V38.4324Z" fill="#C4C4C4"/>
<path d="M38.4324 38.4324H44.8378V44.8378H38.4324V38.4324Z" fill="#C4C4C4"/>
<path d="M76.8649 38.4324H83.2703V44.8378H76.8649V38.4324Z" fill="#C4C4C4"/>
<path d="M115.297 38.4324H121.703V44.8378H115.297V38.4324Z" fill="#C4C4C4"/>
<path d="M153.73 38.4324H160.135V44.8378H153.73V38.4324Z" fill="#C4C4C4"/>
<path d="M192.162 38.4324H198.568V44.8378H192.162V38.4324Z" fill="#C4C4C4"/>
<path d="M230.595 38.4324H237V44.8378H230.595V38.4324Z" fill="#C4C4C4"/>
<path d="M0 76.8649H6.40541V83.2703H0V76.8649Z" fill="#C4C4C4"/>
<path d="M38.4324 76.8649H44.8378V83.2703H38.4324V76.8649Z" fill="#C4C4C4"/>
<path d="M76.8649 76.8649H83.2703V83.2703H76.8649V76.8649Z" fill="#C4C4C4"/>
<path d="M115.297 76.8649H121.703V83.2703H115.297V76.8649Z" fill="#C4C4C4"/>
<path d="M153.73 76.8649H160.135V83.2703H153.73V76.8649Z" fill="#C4C4C4"/>
<path d="M192.162 76.8649H198.568V83.2703H192.162V76.8649Z" fill="#C4C4C4"/>
<path d="M230.595 76.8649H237V83.2703H230.595V76.8649Z" fill="#C4C4C4"/>
<path d="M0 115.297H6.40541V121.703H0V115.297Z" fill="#C4C4C4"/>
<path d="M38.4324 115.297H44.8378V121.703H38.4324V115.297Z" fill="#C4C4C4"/>
<path d="M76.8649 115.297H83.2703V121.703H76.8649V115.297Z" fill="#C4C4C4"/>
<path d="M115.297 115.297H121.703V121.703H115.297V115.297Z" fill="#C4C4C4"/>
<path d="M153.73 115.297H160.135V121.703H153.73V115.297Z" fill="#C4C4C4"/>
<path d="M192.162 115.297H198.568V121.703H192.162V115.297Z" fill="#C4C4C4"/>
<path d="M230.595 115.297H237V121.703H230.595V115.297Z" fill="#C4C4C4"/>
<path d="M0 153.73H6.40541V160.135H0V153.73Z" fill="#C4C4C4"/>
<path d="M38.4324 153.73H44.8378V160.135H38.4324V153.73Z" fill="#C4C4C4"/>
<path d="M76.8649 153.73H83.2703V160.135H76.8649V153.73Z" fill="#C4C4C4"/>
<path d="M115.297 153.73H121.703V160.135H115.297V153.73Z" fill="#C4C4C4"/>
<path d="M153.73 153.73H160.135V160.135H153.73V153.73Z" fill="#C4C4C4"/>
<path d="M192.162 153.73H198.568V160.135H192.162V153.73Z" fill="#C4C4C4"/>
<path d="M230.595 153.73H237V160.135H230.595V153.73Z" fill="#C4C4C4"/>
<path d="M0 192.162H6.40541V198.568H0V192.162Z" fill="#C4C4C4"/>
<path d="M38.4324 192.162H44.8378V198.568H38.4324V192.162Z" fill="#C4C4C4"/>
<path d="M76.8649 192.162H83.2703V198.568H76.8649V192.162Z" fill="#C4C4C4"/>
<path d="M115.297 192.162H121.703V198.568H115.297V192.162Z" fill="#C4C4C4"/>
<path d="M153.73 192.162H160.135V198.568H153.73V192.162Z" fill="#C4C4C4"/>
<path d="M192.162 192.162H198.568V198.568H192.162V192.162Z" fill="#C4C4C4"/>
<path d="M230.595 192.162H237V198.568H230.595V192.162Z" fill="#C4C4C4"/>
<path d="M0 230.595H6.40541V237H0V230.595Z" fill="#C4C4C4"/>
<path d="M38.4324 230.595H44.8378V237H38.4324V230.595Z" fill="#C4C4C4"/>
<path d="M76.8649 230.595H83.2703V237H76.8649V230.595Z" fill="#C4C4C4"/>
<path d="M115.297 230.595H121.703V237H115.297V230.595Z" fill="#C4C4C4"/>
<path d="M153.73 230.595H160.135V237H153.73V230.595Z" fill="#C4C4C4"/>
<path d="M192.162 230.595H198.568V237H192.162V230.595Z" fill="#C4C4C4"/>
<path d="M230.595 230.595H237V237H230.595V230.595Z" fill="#C4C4C4"/>
</g>
</svg>
