<svg width="198" height="84" viewBox="0 0 198 84" fill="none" xmlns="http://www.w3.org/2000/svg">
<path d="M131.8 34.5979C132.782 35.6144 133.255 36.8495 133.214 38.2879H122.021C122.054 37.6017 122.213 36.9562 122.504 36.326C122.785 35.7033 123.179 35.1544 123.685 34.6792C124.199 34.2039 124.811 33.8151 125.524 33.5178C126.24 33.2103 127.067 33.0654 128.016 33.0654C129.559 33.0654 130.819 33.5737 131.8 34.5979Z" fill="#00A9BD"/>
<path d="M179.744 36.3589C178.563 37.6423 177.968 39.3297 177.968 41.4111C177.968 43.4949 178.563 45.1799 179.744 46.4632C180.933 47.7542 182.605 48.3997 184.75 48.3997C186.903 48.3997 188.567 47.7542 189.756 46.4632C190.945 45.1799 191.539 43.4924 191.539 41.4111C191.539 39.3272 190.945 37.6423 189.756 36.3589C188.567 35.0679 186.903 34.4224 184.75 34.4224C182.605 34.4198 180.935 35.0653 179.744 36.3589ZM196.313 30.9331C196.955 31.6193 197.517 32.369 198 33.1924V0H115.553V33.8633C116.21 32.7502 117.022 31.7489 117.978 30.8772C119.352 29.6015 120.976 28.6332 122.84 27.9471C124.705 27.2685 126.698 26.9229 128.803 26.9229C130.763 26.9229 132.546 27.2711 134.145 27.9471C135.751 28.6332 137.11 29.6015 138.218 30.8772C139.326 32.1453 140.186 33.6701 140.788 35.4465C141.39 37.2306 141.696 39.2153 141.696 41.4111V44.082H122.018C122.355 45.7135 123.086 47.0045 124.219 47.9728C125.352 48.9334 126.751 49.4188 128.405 49.4188C129.804 49.4188 130.976 49.1113 131.942 48.4836C132.906 47.861 133.743 47.0554 134.456 46.0693L140.393 50.4455C139.035 52.1889 137.325 53.5281 135.251 54.4811C133.169 55.4265 131.024 55.9017 128.798 55.9017C126.693 55.9017 124.7 55.5536 122.835 54.8776C120.971 54.1914 119.347 53.2232 117.973 51.9551C117.025 51.0834 116.213 50.0897 115.547 48.9766V82.8221H197.995V49.3629C197.6 50.0897 197.15 50.7759 196.654 51.4137C195.577 52.7784 194.269 53.8585 192.718 54.6743C191.175 55.49 189.425 55.9017 187.464 55.9017C185.688 55.9017 184.042 55.6273 182.514 55.0784C180.986 54.5294 179.734 53.5942 178.752 52.26H178.641V68.1713H170.157V27.6065H177.966V31.2381H178.077C178.413 30.7451 178.856 30.2444 179.402 29.7362C179.949 29.2279 180.591 28.7603 181.322 28.3384C182.061 27.9267 182.865 27.5887 183.725 27.3219C184.593 27.0551 185.516 26.9178 186.498 26.9178C188.539 26.9178 190.378 27.2736 192.043 27.975C193.702 28.6739 195.131 29.6574 196.313 30.9331ZM166.279 34.9942C165.677 34.801 165.082 34.6638 164.495 34.5672C163.916 34.4707 163.299 34.4224 162.664 34.4224C161.04 34.4224 159.755 34.6562 158.816 35.1085C157.875 35.5609 157.144 36.1988 156.638 37.0145C156.132 37.8303 155.804 38.7986 155.649 39.9371C155.498 41.0756 155.424 42.3259 155.424 43.6906V55.2181H146.94V27.6065H155.424V32.0386H155.536C156.444 30.3359 157.511 29.0525 158.758 28.2037C160.003 27.3473 161.571 26.9204 163.451 26.9204C163.941 26.9204 164.432 26.9458 164.92 26.9763C165.411 27.0169 165.861 27.0983 166.279 27.2101V34.9942Z" fill="#00A9BD"/>
<path d="M28.8932 35.4466C28.2507 33.7032 27.3349 32.2013 26.1536 30.9332C24.9647 29.6574 23.5431 28.6739 21.8786 27.9776C20.2242 27.2762 18.3751 26.9204 16.3337 26.9204C15.3522 26.9204 14.4365 27.0576 13.5688 27.3245C12.7012 27.5913 11.8967 27.9293 11.1657 28.341C10.427 28.7603 9.78452 29.2279 9.23813 29.7387C8.69173 30.247 8.24905 30.7477 7.91261 31.2407H7.80131V27.6091H0V68.1714H8.47672V52.2601H8.58802C9.56951 53.5917 10.8217 54.5295 12.3495 55.0784C13.8774 55.6273 15.5318 55.9018 17.3 55.9018C19.2604 55.9018 21.0135 55.4901 22.5641 54.6743C24.1072 53.8586 25.4175 52.7785 26.4926 51.4138C27.5702 50.0491 28.3974 48.4836 28.9767 46.7225C29.5635 44.9639 29.8519 43.1138 29.8519 41.1849C29.8494 39.1036 29.5382 37.1899 28.8932 35.4466ZM19.5893 46.4633C18.4004 47.7543 16.7359 48.3998 14.5832 48.3998C12.4381 48.3998 10.766 47.7543 9.58468 46.4633C8.39577 45.1799 7.80131 43.4925 7.80131 41.4111C7.80131 39.3272 8.39577 37.6423 9.58468 36.3589C10.766 35.0679 12.4381 34.4224 14.5832 34.4224C16.7359 34.4224 18.4004 35.0679 19.5893 36.3589C20.7782 37.6423 21.3727 39.3297 21.3727 41.4111C21.3727 43.495 20.7782 45.1799 19.5893 46.4633Z" fill="#00A9BD"/>
<path d="M62.9796 35.4465C62.1853 33.6701 61.1077 32.1453 59.7265 30.8772C58.353 29.6014 56.729 28.6332 54.8646 27.947C53.0003 27.2685 51.007 26.9229 48.9024 26.9229C46.7901 26.9229 44.7968 27.271 42.9325 27.947C41.0682 28.6332 39.4441 29.6014 38.0706 30.8772C36.697 32.1453 35.6118 33.6701 34.8175 35.4465C34.0308 37.2305 33.6362 39.2153 33.6362 41.411C33.6362 43.6067 34.0308 45.5915 34.8175 47.3755C35.6118 49.1595 36.697 50.6767 38.0706 51.9525C39.4441 53.2206 41.0682 54.1888 42.9325 54.875C44.7968 55.5535 46.7901 55.8992 48.9024 55.8992C51.007 55.8992 53.0003 55.551 54.8646 54.875C56.729 54.1888 58.353 53.2206 59.7265 51.9525C61.1077 50.6767 62.1853 49.1595 62.9796 47.3755C63.7739 45.5915 64.1685 43.6067 64.1685 41.411C64.1685 39.2153 63.7739 37.2305 62.9796 35.4465ZM53.9084 46.4632C52.7195 47.7542 51.0475 48.3997 48.9024 48.3997C46.7497 48.3997 45.0852 47.7542 43.8963 46.4632C42.7073 45.1798 42.1129 43.4924 42.1129 41.411C42.1129 39.3271 42.7073 37.6422 43.8963 36.3588C45.0852 35.0678 46.7497 34.4223 48.9024 34.4223C51.0475 34.4223 52.7195 35.0678 53.9084 36.3588C55.0898 37.6422 55.6842 39.3296 55.6842 41.411C55.6842 43.4949 55.0898 45.1798 53.9084 46.4632Z" fill="#00A9BD"/>
<path d="M103.982 27.6064L98.8318 44.9307H98.7205L93.6335 27.6064H84.3599L79.6675 44.9307H79.5562L73.9556 27.6064H64.9072L74.9751 55.213H83.5074L88.6021 36.8645H88.7134L94.4252 55.213H102.791L112.578 27.6064H103.982Z" fill="#00A9BD"/>
<path d="M4.39646 77.3405C4.33322 77.1143 4.21939 76.9136 4.06002 76.7357C3.89813 76.5502 3.68311 76.4053 3.40991 76.2909C3.12912 76.1689 2.77498 76.113 2.35001 76.113H0V82.8298H0.90054V79.8666H2.34748C2.77245 79.8666 3.1266 79.8107 3.40738 79.6887C3.68058 79.5769 3.89813 79.4219 4.05749 79.244C4.21939 79.0661 4.33069 78.8653 4.39393 78.6391C4.45717 78.4129 4.49005 78.1944 4.49005 77.986C4.49258 77.7852 4.4597 77.5667 4.39646 77.3405ZM3.40738 78.5451C3.32643 78.69 3.21513 78.7941 3.07853 78.8755C2.94193 78.9492 2.79016 79.0051 2.62067 79.028C2.4436 79.061 2.26653 79.0686 2.08946 79.0686H0.90054V76.9059H2.08946C2.26653 76.9059 2.4436 76.9212 2.62067 76.9542C2.79016 76.9796 2.94193 77.0355 3.07853 77.1067C3.21513 77.188 3.32643 77.2922 3.40738 77.4371C3.48833 77.5743 3.5288 77.7598 3.5288 77.986C3.52627 78.2198 3.48833 78.4079 3.40738 78.5451Z" fill="#00A9BD"/>
<path d="M12.6708 78.0748C12.4938 77.6479 12.261 77.2768 11.9549 76.9515C11.6489 76.6364 11.2795 76.395 10.8546 76.2095C10.4195 76.0316 9.95403 75.9426 9.44811 75.9426C8.9346 75.9426 8.46662 76.0316 8.04165 76.2095C7.60655 76.395 7.24735 76.6364 6.94127 76.9515C6.63518 77.2743 6.39487 77.6453 6.2178 78.0748C6.04831 78.5018 5.95978 78.9719 5.95978 79.4725C5.95978 79.9732 6.04831 80.4332 6.2178 80.8703C6.39487 81.2972 6.63518 81.6683 6.94127 81.9834C7.24735 82.2985 7.60908 82.5476 8.04165 82.7255C8.46662 82.911 8.9346 82.9999 9.44811 82.9999C9.95403 82.9999 10.4195 82.911 10.8546 82.7255C11.2795 82.5476 11.6489 82.2985 11.9549 81.9834C12.261 81.6683 12.4938 81.2972 12.6708 80.8703C12.8403 80.4332 12.9288 79.9732 12.9288 79.4725C12.9288 78.9719 12.8403 78.5043 12.6708 78.0748ZM11.788 80.5043C11.6666 80.8347 11.4996 81.1168 11.2821 81.3608C11.0569 81.5946 10.7913 81.7877 10.4878 81.9351C10.1741 82.0723 9.83008 82.146 9.45064 82.146C9.06614 82.146 8.71958 82.0723 8.40591 81.9351C8.09983 81.7902 7.83422 81.5971 7.6192 81.3608C7.39407 81.1193 7.22458 80.8372 7.10569 80.5043C6.98427 80.1816 6.92862 79.8334 6.92862 79.47C6.92862 79.099 6.98427 78.7508 7.10569 78.4281C7.22711 78.1053 7.39407 77.8232 7.6192 77.5792C7.83675 77.3378 8.10236 77.1421 8.40591 77.0049C8.71958 76.8601 9.06361 76.7864 9.45064 76.7864C9.82755 76.7864 10.1741 76.8601 10.4878 77.0049C10.7939 77.1421 11.0595 77.3353 11.2821 77.5792C11.4996 77.8207 11.6666 78.1028 11.788 78.4281C11.9094 78.7508 11.9651 79.099 11.9651 79.47C11.9651 79.836 11.9069 80.1816 11.788 80.5043Z" fill="#00A9BD"/>
<path d="M22.1138 76.113L20.6441 81.4803H20.6188L19.053 76.113H18.0083L16.4424 81.4803H16.4171L14.9474 76.113H13.9988L15.9517 82.8298H16.9155L18.5218 77.3481H18.537L20.1508 82.8298H21.1146L23.0599 76.113H22.1138Z" fill="#00A9BD"/>
<path d="M25.592 81.9759V79.8208H28.7591V78.9644H25.592V76.9695H28.9994V76.113H24.6839V82.8298H29.1664V81.9734H25.592V81.9759Z" fill="#00A9BD"/>
<path d="M33.9575 79.7624C34.2054 79.737 34.4305 79.6735 34.6405 79.5616C34.8403 79.4498 35.0174 79.3126 35.154 79.1499C35.2982 78.9873 35.4019 78.8119 35.4828 78.6086C35.5562 78.4155 35.5941 78.2046 35.5941 77.986C35.5941 77.7852 35.5612 77.5667 35.498 77.3405C35.4348 77.1143 35.3285 76.9136 35.1691 76.7357C35.0073 76.5502 34.7846 76.4053 34.5114 76.2909C34.2307 76.1689 33.8841 76.113 33.4515 76.113H31.1041V82.8298H32.0122V79.8666H33.0165L34.7189 82.8298H35.8521L33.9575 79.7624ZM33.2011 79.0686H32.0122V76.9059H33.2011C33.3706 76.9059 33.5477 76.9212 33.7222 76.9542C33.8917 76.9796 34.0511 77.0355 34.1801 77.1067C34.3167 77.188 34.428 77.2922 34.5089 77.4371C34.5899 77.5743 34.6303 77.7598 34.6303 77.986C34.6303 78.2198 34.5899 78.4053 34.5089 78.5426C34.428 78.6874 34.3167 78.7916 34.1801 78.8729C34.0511 78.9466 33.8917 79.0025 33.7222 79.0254C33.5477 79.061 33.3706 79.0686 33.2011 79.0686Z" fill="#00A9BD"/>
<path d="M46.0743 79.9656C45.9048 79.7394 45.7049 79.5539 45.4646 79.4167C45.2243 79.2795 44.9587 79.1753 44.6703 79.1016C44.3895 79.0202 44.1239 78.9389 43.8836 78.8423C43.6357 78.7458 43.4333 78.6238 43.274 78.4713C43.1045 78.3264 43.0261 78.1079 43.0261 77.8182C43.0261 77.7216 43.0514 77.6072 43.0893 77.4878C43.1298 77.3658 43.2006 77.254 43.2993 77.1498C43.403 77.0532 43.5396 76.9643 43.7015 76.9008C43.871 76.8372 44.0784 76.7966 44.3288 76.7966C44.5944 76.7966 44.8347 76.8525 45.0447 76.9592C45.2445 77.071 45.4064 77.2083 45.5177 77.3862L46.2564 76.7152C46.0085 76.4001 45.71 76.1993 45.3811 76.0926C45.0447 75.996 44.6981 75.9478 44.3288 75.9478C43.9266 75.9478 43.5826 76.0037 43.2993 76.1333C43.0109 76.2553 42.7782 76.4077 42.591 76.5933C42.4063 76.7712 42.2773 76.9719 42.1888 77.1981C42.1078 77.4166 42.0598 77.625 42.0598 77.8207C42.0598 78.2578 42.1483 78.6035 42.3077 78.8627C42.4696 79.1219 42.677 79.3227 42.9173 79.4751C43.1576 79.6276 43.4232 79.742 43.704 79.8309C43.9924 79.9122 44.258 80.0012 44.4983 80.0978C44.7386 80.1867 44.941 80.2985 45.1079 80.4358C45.2698 80.573 45.3483 80.7661 45.3483 81.0254C45.3483 81.2109 45.3078 81.3735 45.2268 81.5107C45.1459 81.6556 45.0422 81.77 44.9132 81.8665C44.7842 81.9631 44.64 82.0292 44.4781 82.0775C44.3263 82.1258 44.172 82.1512 44.0202 82.1512C43.747 82.1512 43.4814 82.0953 43.2335 81.9733C42.9755 81.8615 42.7681 81.6734 42.6062 81.432L41.8599 82.0775C42.0851 82.3926 42.3911 82.6264 42.7756 82.7789C43.1526 82.9237 43.5623 83.0051 43.9899 83.0051C44.3111 83.0051 44.6172 82.9568 44.898 82.8602C45.1788 82.7636 45.4292 82.634 45.6366 82.4561C45.8466 82.2782 46.006 82.0597 46.1274 81.803C46.2564 81.5438 46.312 81.2464 46.312 80.9313C46.3146 80.5145 46.2336 80.1994 46.0743 79.9656Z" fill="#00A9BD"/>
<path d="M54.6218 78.0748C54.4447 77.6479 54.2044 77.2768 53.8984 76.9515C53.5923 76.6364 53.2305 76.395 52.798 76.2095C52.373 76.0316 51.905 75.9426 51.3915 75.9426C50.8856 75.9426 50.4201 76.0316 49.985 76.2095C49.5601 76.395 49.1907 76.6364 48.8847 76.9515C48.5786 77.2743 48.3459 77.6453 48.1688 78.0748C47.9993 78.5018 47.9108 78.9719 47.9108 79.4725C47.9108 79.9732 47.9993 80.4332 48.1688 80.8703C48.3459 81.2972 48.5786 81.6683 48.8847 81.9834C49.1907 82.2985 49.5601 82.5476 49.985 82.7255C50.4201 82.911 50.8856 82.9999 51.3915 82.9999C51.905 82.9999 52.373 82.911 52.798 82.7255C53.2331 82.5476 53.5923 82.2985 53.8984 81.9834C54.2044 81.6683 54.4447 81.2972 54.6218 80.8703C54.7913 80.4332 54.8798 79.9732 54.8798 79.4725C54.8798 78.9719 54.7913 78.5043 54.6218 78.0748ZM53.739 80.5043C53.6176 80.8347 53.4506 81.1168 53.2255 81.3608C53.0079 81.5946 52.7423 81.7877 52.4388 81.9351C52.1251 82.0723 51.7811 82.146 51.394 82.146C51.0171 82.146 50.6706 82.0723 50.3569 81.9351C50.0508 81.7902 49.7852 81.5971 49.5626 81.3608C49.3451 81.1193 49.1781 80.8372 49.0567 80.5043C48.9353 80.1816 48.8796 79.8334 48.8796 79.47C48.8796 79.099 48.9353 78.7508 49.0567 78.4281C49.1781 78.1053 49.3451 77.8232 49.5626 77.5792C49.7877 77.3378 50.0533 77.1421 50.3569 77.0049C50.6706 76.8601 51.0146 76.7864 51.394 76.7864C51.7785 76.7864 52.1251 76.8601 52.4388 77.0049C52.7448 77.1421 53.0105 77.3353 53.2255 77.5792C53.4506 77.8207 53.6201 78.1028 53.739 78.4281C53.8604 78.7508 53.9161 79.099 53.9161 79.47C53.9161 79.836 53.8604 80.1816 53.739 80.5043Z" fill="#00A9BD"/>
<path d="M57.8041 81.9759V76.113H56.8959V82.8298H60.8725V81.9734H57.8041V81.9759Z" fill="#00A9BD"/>
<path d="M66.5236 76.113V80.23C66.5236 80.4409 66.4907 80.6493 66.4351 80.8755C66.3794 81.1017 66.2833 81.3126 66.1543 81.4981C66.0177 81.6913 65.8482 81.8463 65.6332 81.9657C65.4232 82.0877 65.1602 82.1436 64.8465 82.1436C64.5252 82.1436 64.2596 82.0877 64.0522 81.9657C63.8346 81.8438 63.6677 81.6913 63.5311 81.4981C63.4021 81.3126 63.306 81.1017 63.2503 80.8755C63.1947 80.6493 63.1618 80.4384 63.1618 80.23V76.113H62.2612V80.3672C62.2612 80.7637 62.3245 81.1169 62.4535 81.4397C62.5901 81.7548 62.7672 82.0293 62.9999 82.2631C63.2326 82.4969 63.5058 82.6824 63.8271 82.8044C64.1407 82.934 64.4772 82.9975 64.8465 82.9975C65.2082 82.9975 65.5447 82.934 65.8583 82.8044C66.1796 82.6824 66.4528 82.4969 66.6855 82.2631C66.9182 82.0293 67.0953 81.7548 67.2319 81.4397C67.3609 81.1169 67.4318 80.7611 67.4318 80.3672V76.113H66.5236Z" fill="#00A9BD"/>
<path d="M69.0381 76.113V76.9695H71.1908V82.8298H72.0989V76.9695H74.2516V76.113H69.0381Z" fill="#00A9BD"/>
<path d="M75.9236 76.113V82.8298H76.8318V76.113H75.9236Z" fill="#00A9BD"/>
<path d="M85.5741 78.0748C85.4046 77.6479 85.1643 77.2768 84.8582 76.9515C84.5521 76.6364 84.1828 76.395 83.7578 76.2095C83.3328 76.0316 82.8573 75.9426 82.3514 75.9426C81.8378 75.9426 81.3699 76.0316 80.9449 76.2095C80.5199 76.395 80.1506 76.6364 79.8445 76.9515C79.5384 77.2743 79.2981 77.6453 79.1286 78.0748C78.9516 78.5018 78.863 78.9719 78.863 79.4725C78.863 79.9732 78.9516 80.4332 79.1286 80.8703C79.2981 81.2972 79.5384 81.6683 79.8445 81.9834C80.1506 82.2985 80.5199 82.5476 80.9449 82.7255C81.3699 82.911 81.8378 82.9999 82.3514 82.9999C82.8573 82.9999 83.3328 82.911 83.7578 82.7255C84.1828 82.5476 84.5521 82.2985 84.8582 81.9834C85.1643 81.6683 85.4046 81.2972 85.5741 80.8703C85.7512 80.4332 85.8397 79.9732 85.8397 79.4725C85.8397 78.9719 85.7512 78.5043 85.5741 78.0748ZM84.6887 80.5043C84.5673 80.8347 84.4003 81.1168 84.1828 81.3608C83.9577 81.5946 83.6996 81.7877 83.3885 81.9351C83.0824 82.0723 82.7384 82.146 82.3514 82.146C81.9669 82.146 81.6203 82.0723 81.3142 81.9351C81.0006 81.7902 80.7349 81.5971 80.5199 81.3608C80.3024 81.1193 80.1253 80.8372 80.014 80.5043C79.8926 80.1816 79.8293 79.8334 79.8293 79.47C79.8293 79.099 79.8926 78.7508 80.014 78.4281C80.1253 78.1053 80.3024 77.8232 80.5199 77.5792C80.7375 77.3378 81.0031 77.1421 81.3142 77.0049C81.6203 76.8601 81.9643 76.7864 82.3514 76.7864C82.7359 76.7864 83.0824 76.8601 83.3885 77.0049C83.7022 77.1421 83.9602 77.3353 84.1828 77.5792C84.4003 77.8207 84.5673 78.1028 84.6887 78.4281C84.8101 78.7508 84.8734 79.099 84.8734 79.47C84.8734 79.836 84.8101 80.1816 84.6887 80.5043Z" fill="#00A9BD"/>
<path d="M92.7481 76.113V81.6354H92.7228L89.0422 76.113H87.8533V82.8298H88.7614V77.3075H88.7766L92.4976 82.8298H93.6537V76.113H92.7481Z" fill="#00A9BD"/>
<path d="M99.7627 79.9656C99.5932 79.7394 99.3934 79.5539 99.153 79.4167C98.9127 79.2795 98.6471 79.1753 98.3587 79.1016C98.078 79.0202 97.8123 78.9389 97.572 78.8423C97.3317 78.7458 97.1218 78.6238 96.9624 78.4713C96.8005 78.3264 96.7145 78.1079 96.7145 77.8182C96.7145 77.7216 96.7398 77.6072 96.7777 77.4878C96.8182 77.3658 96.889 77.254 96.9877 77.1498C97.0914 77.0532 97.228 76.9643 97.3899 76.9008C97.5594 76.8372 97.7668 76.7966 98.0248 76.7966C98.2829 76.7966 98.5232 76.8525 98.7331 76.9592C98.933 77.071 99.0949 77.2083 99.2163 77.3862L99.9473 76.7152C99.6994 76.4001 99.4009 76.1993 99.0721 76.0926C98.7357 75.996 98.3891 75.9478 98.0274 75.9478C97.6176 75.9478 97.2811 76.0037 96.9902 76.1333C96.7019 76.2553 96.4691 76.4077 96.2819 76.5933C96.1049 76.7712 95.9683 76.9719 95.8797 77.1981C95.7988 77.4166 95.7583 77.625 95.7583 77.8207C95.7583 78.2578 95.8393 78.6035 95.9986 78.8627C96.1605 79.1219 96.3679 79.3227 96.6083 79.4751C96.8486 79.6276 97.1142 79.742 97.4025 79.8309C97.6833 79.9122 97.9489 80.0012 98.1893 80.0978C98.4296 80.1867 98.6395 80.2985 98.7989 80.4358C98.9608 80.573 99.0468 80.7661 99.0468 81.0254C99.0468 81.2109 98.9987 81.3735 98.9178 81.5107C98.8368 81.6556 98.7331 81.77 98.6041 81.8665C98.4751 81.9631 98.3309 82.0292 98.1791 82.0775C98.0172 82.1258 97.8655 82.1512 97.7137 82.1512C97.4405 82.1512 97.1825 82.0953 96.927 81.9733C96.669 81.8615 96.4615 81.6734 96.2996 81.432L95.5534 82.0775C95.7785 82.3926 96.0846 82.6264 96.4691 82.7789C96.8536 82.9237 97.2558 83.0051 97.6833 83.0051C98.0046 83.0051 98.3107 82.9568 98.5915 82.8602C98.8723 82.7636 99.1227 82.634 99.3301 82.4561C99.5401 82.2782 99.6994 82.0597 99.8284 81.803C99.9499 81.5438 100.006 81.2464 100.006 80.9313C100.006 80.5145 99.9246 80.1994 99.7627 79.9656Z" fill="#00A9BD"/>
</svg>
