<svg width="185" height="78" viewBox="0 0 185 78" fill="none" xmlns="http://www.w3.org/2000/svg">
<path d="M123.147 32.5136C124.064 33.4689 124.506 34.6296 124.468 35.9813H114.009C114.04 35.3365 114.189 34.7299 114.461 34.1376C114.723 33.5525 115.092 33.0366 115.564 32.59C116.044 32.1434 116.616 31.778 117.283 31.4986C117.952 31.2096 118.725 31.0735 119.611 31.0735C121.053 31.0735 122.23 31.5511 123.147 32.5136Z" fill="white"/>
<path d="M167.942 34.1686C166.839 35.3746 166.283 36.9604 166.283 38.9164C166.283 40.8748 166.839 42.4582 167.942 43.6642C169.053 44.8775 170.616 45.4841 172.62 45.4841C174.631 45.4841 176.186 44.8775 177.297 43.6642C178.408 42.4582 178.964 40.8724 178.964 38.9164C178.964 36.958 178.408 35.3746 177.297 34.1686C176.186 32.9554 174.631 32.3487 172.62 32.3487C170.616 32.3464 169.056 32.953 167.942 34.1686ZM183.424 29.0697C184.024 29.7145 184.549 30.419 185 31.1928V0H107.966V31.8233C108.58 30.7773 109.339 29.8363 110.232 29.0171C111.516 27.8182 113.033 26.9083 114.775 26.2635C116.517 25.6258 118.379 25.301 120.346 25.301C122.178 25.301 123.844 25.6282 125.338 26.2635C126.838 26.9083 128.108 27.8182 129.143 29.0171C130.178 30.2089 130.982 31.6418 131.544 33.3112C132.107 34.9878 132.393 36.853 132.393 38.9164V41.4265H114.007C114.321 42.9597 115.004 44.1729 116.063 45.0829C117.122 45.9856 118.429 46.4418 119.975 46.4418C121.282 46.4418 122.376 46.1528 123.279 45.5629C124.179 44.9778 124.962 44.2207 125.628 43.2941L131.176 47.4066C129.906 49.0449 128.309 50.3036 126.37 51.1991C124.425 52.0876 122.421 52.5342 120.341 52.5342C118.375 52.5342 116.512 52.207 114.77 51.5717C113.028 50.9269 111.511 50.017 110.228 48.8252C109.341 48.0061 108.583 47.0723 107.961 46.0262V77.8328H184.995V46.3892C184.627 47.0723 184.206 47.7171 183.743 48.3165C182.736 49.599 181.514 50.614 180.065 51.3806C178.623 52.1473 176.988 52.5342 175.156 52.5342C173.497 52.5342 171.958 52.2762 170.531 51.7604C169.103 51.2445 167.933 50.3656 167.016 49.1118H166.912V64.0646H158.985V25.9435H166.281V29.3563H166.385C166.699 28.893 167.113 28.4225 167.623 27.9448C168.134 27.4672 168.734 27.0277 169.417 26.6313C170.107 26.2444 170.859 25.9268 171.663 25.676C172.473 25.4252 173.336 25.2963 174.253 25.2963C176.16 25.2963 177.879 25.6306 179.434 26.2898C180.984 26.9465 182.32 27.8708 183.424 29.0697ZM155.361 32.8861C154.799 32.7046 154.243 32.5756 153.695 32.4849C153.154 32.3941 152.577 32.3487 151.984 32.3487C150.467 32.3487 149.266 32.5685 148.389 32.9936C147.51 33.4187 146.827 34.0181 146.354 34.7847C145.881 35.5514 145.574 36.4613 145.43 37.5312C145.288 38.6012 145.22 39.7762 145.22 41.0587V51.8917H137.292V25.9435H145.22V30.1086H145.324C146.172 28.5084 147.169 27.3024 148.335 26.5047C149.498 25.6999 150.963 25.2987 152.719 25.2987C153.178 25.2987 153.636 25.3225 154.092 25.3512C154.551 25.3894 154.971 25.4658 155.361 25.5709V32.8861Z" fill="white"/>
<path d="M26.9962 33.3111C26.3958 31.6728 25.5402 30.2614 24.4365 29.0696C23.3256 27.8707 21.9973 26.9465 20.4421 26.2921C18.8964 25.6329 17.1686 25.2986 15.2613 25.2986C14.3442 25.2986 13.4886 25.4275 12.6779 25.6783C11.8672 25.9291 11.1156 26.2467 10.4326 26.6336C9.74244 27.0277 9.14211 27.4671 8.63158 27.9471C8.12106 28.4248 7.70745 28.8953 7.3931 29.3586H7.2891V25.9458H0V64.0645H7.92016V49.1117H8.02416C8.94121 50.3632 10.1111 51.2444 11.5387 51.7603C12.9663 52.2762 14.512 52.5341 16.1641 52.5341C17.9959 52.5341 19.6338 52.1472 21.0826 51.3806C22.5244 50.614 23.7487 49.599 24.7532 48.3165C25.76 47.034 26.5329 45.5628 27.0742 43.9078C27.6225 42.2551 27.8919 40.5165 27.8919 38.7038C27.8896 36.7478 27.5989 34.9495 26.9962 33.3111ZM18.3031 43.6642C17.1923 44.8774 15.6371 45.484 13.6257 45.484C11.6214 45.484 10.0592 44.8774 8.95539 43.6642C7.84453 42.4581 7.2891 40.8723 7.2891 38.9163C7.2891 36.958 7.84453 35.3746 8.95539 34.1685C10.0592 32.9553 11.6214 32.3487 13.6257 32.3487C15.6371 32.3487 17.1923 32.9553 18.3031 34.1685C19.414 35.3746 19.9694 36.9604 19.9694 38.9163C19.9694 40.8747 19.414 42.4581 18.3031 43.6642Z" fill="white"/>
<path d="M58.8446 33.3112C58.1024 31.6418 57.0956 30.2089 55.8051 29.0171C54.5217 27.8182 53.0043 26.9083 51.2624 26.2635C49.5205 25.6258 47.658 25.301 45.6916 25.301C43.7181 25.301 41.8556 25.6282 40.1137 26.2635C38.3718 26.9083 36.8544 27.8182 35.571 29.0171C34.2876 30.2089 33.2736 31.6418 32.5315 33.3112C31.7964 34.9877 31.4277 36.853 31.4277 38.9164C31.4277 40.9798 31.7964 42.8451 32.5315 44.5216C33.2736 46.1982 34.2876 47.6239 35.571 48.8228C36.8544 50.0146 38.3718 50.9245 40.1137 51.5693C41.8556 52.207 43.7181 52.5318 45.6916 52.5318C47.658 52.5318 49.5205 52.2046 51.2624 51.5693C53.0043 50.9245 54.5217 50.0146 55.8051 48.8228C57.0956 47.6239 58.1024 46.1982 58.8446 44.5216C59.5867 42.8451 59.9555 40.9798 59.9555 38.9164C59.9555 36.853 59.5867 34.9877 58.8446 33.3112ZM50.369 43.6642C49.2581 44.8775 47.6959 45.4841 45.6916 45.4841C43.6802 45.4841 42.125 44.8775 41.0142 43.6642C39.9033 42.4582 39.3479 40.8724 39.3479 38.9164C39.3479 36.958 39.9033 35.3746 41.0142 34.1686C42.125 32.9553 43.6802 32.3487 45.6916 32.3487C47.6959 32.3487 49.2581 32.9553 50.369 34.1686C51.4728 35.3746 52.0282 36.9604 52.0282 38.9164C52.0282 40.8748 51.4728 42.4582 50.369 43.6642Z" fill="white"/>
<path d="M97.155 25.9434L92.3428 42.224H92.2388L87.4858 25.9434H78.8211L74.4368 42.224H74.3328L69.0999 25.9434H60.6456L70.0525 51.8868H78.0246L82.7847 34.6437H82.8887L88.2256 51.8868H96.0417L105.186 25.9434H97.155Z" fill="white"/>
<path d="M4.1078 72.6814C4.04871 72.4688 3.94236 72.2801 3.79345 72.113C3.64219 71.9386 3.44129 71.8025 3.18603 71.695C2.92368 71.5804 2.59278 71.5278 2.19571 71.5278H0V77.84H0.841414V75.0553H2.19335C2.59042 75.0553 2.92131 75.0027 3.18367 74.8881C3.43893 74.783 3.64219 74.6373 3.79109 74.4701C3.94236 74.303 4.04635 74.1143 4.10544 73.9017C4.16453 73.6892 4.19525 73.4838 4.19525 73.288C4.19762 73.0993 4.16689 72.8939 4.1078 72.6814ZM3.18367 73.8134C3.10803 73.9495 3.00404 74.0474 2.87641 74.1239C2.74878 74.1931 2.60697 74.2457 2.44861 74.2671C2.28316 74.2982 2.11772 74.3054 1.95227 74.3054H0.841414V72.273H1.95227C2.11772 72.273 2.28316 72.2873 2.44861 72.3183C2.60697 72.3422 2.74878 72.3948 2.87641 72.4616C3.00404 72.5381 3.10803 72.636 3.18367 72.7721C3.2593 72.9011 3.29711 73.0754 3.29711 73.288C3.29475 73.5077 3.2593 73.6844 3.18367 73.8134Z" fill="white"/>
<path d="M11.8389 73.3717C11.6735 72.9704 11.456 72.6217 11.17 72.3161C10.884 72.0199 10.539 71.793 10.1419 71.6187C9.73537 71.4515 9.30048 71.3679 8.82778 71.3679C8.34798 71.3679 7.91073 71.4515 7.51366 71.6187C7.10713 71.793 6.77151 72.0199 6.48553 72.3161C6.19954 72.6194 5.97501 72.968 5.80956 73.3717C5.6512 73.7729 5.56848 74.2147 5.56848 74.6852C5.56848 75.1557 5.6512 75.5879 5.80956 75.9987C5.97501 76.4 6.19954 76.7486 6.48553 77.0448C6.77151 77.3409 7.1095 77.575 7.51366 77.7421C7.91073 77.9165 8.34798 78.0001 8.82778 78.0001C9.30048 78.0001 9.73537 77.9165 10.1419 77.7421C10.539 77.575 10.884 77.3409 11.17 77.0448C11.456 76.7486 11.6735 76.4 11.8389 75.9987C11.9973 75.5879 12.08 75.1557 12.08 74.6852C12.08 74.2147 11.9973 73.7753 11.8389 73.3717ZM11.014 75.6548C10.9006 75.9653 10.7446 76.2304 10.5413 76.4597C10.331 76.6794 10.0828 76.8609 9.79919 76.9994C9.50611 77.1284 9.18467 77.1976 8.83014 77.1976C8.47089 77.1976 8.14708 77.1284 7.85401 76.9994C7.56802 76.8633 7.31985 76.6818 7.11895 76.4597C6.9086 76.2328 6.75024 75.9677 6.63916 75.6548C6.52571 75.3515 6.47371 75.0243 6.47371 74.6828C6.47371 74.3341 6.52571 74.0069 6.63916 73.7036C6.75261 73.4003 6.9086 73.1352 7.11895 72.9059C7.32222 72.6791 7.57038 72.4952 7.85401 72.3662C8.14708 72.2301 8.46852 72.1608 8.83014 72.1608C9.18231 72.1608 9.50611 72.2301 9.79919 72.3662C10.0852 72.4952 10.3333 72.6767 10.5413 72.9059C10.7446 73.1328 10.9006 73.3979 11.014 73.7036C11.1275 74.0069 11.1795 74.3341 11.1795 74.6828C11.1795 75.0267 11.1251 75.3515 11.014 75.6548Z" fill="white"/>
<path d="M20.6619 71.5278L19.2887 76.5718H19.2651L17.802 71.5278H16.8259L15.3629 76.5718H15.3392L13.966 71.5278H13.0797L14.9044 77.84H15.8049L17.3057 72.6885H17.3199L18.8278 77.84H19.7283L21.5458 71.5278H20.6619Z" fill="white"/>
<path d="M23.9117 77.0375V75.0123H26.8709V74.2074H23.9117V72.3327H27.0954V71.5278H23.0632V77.84H27.2514V77.0351H23.9117V77.0375Z" fill="white"/>
<path d="M31.7279 74.9573C31.9596 74.9335 32.1699 74.8738 32.3661 74.7687C32.5528 74.6636 32.7183 74.5346 32.8459 74.3818C32.9806 74.2289 33.0775 74.0641 33.1532 73.8731C33.2217 73.6916 33.2571 73.4934 33.2571 73.288C33.2571 73.0993 33.2264 72.8939 33.1673 72.6814C33.1082 72.4688 33.009 72.2801 32.8601 72.113C32.7088 71.9386 32.5008 71.8025 32.2456 71.695C31.9832 71.5804 31.6594 71.5278 31.2552 71.5278H29.0619V77.84H29.9104V75.0553H30.8487L32.4394 77.84H33.4982L31.7279 74.9573ZM31.0213 74.3054H29.9104V72.273H31.0213C31.1796 72.273 31.3451 72.2873 31.5081 72.3183C31.6665 72.3422 31.8154 72.3948 31.9359 72.4616C32.0636 72.5381 32.1676 72.636 32.2432 72.7721C32.3188 72.9011 32.3566 73.0754 32.3566 73.288C32.3566 73.5077 32.3188 73.682 32.2432 73.811C32.1676 73.9471 32.0636 74.045 31.9359 74.1215C31.8154 74.1907 31.6665 74.2433 31.5081 74.2648C31.3451 74.2982 31.1796 74.3054 31.0213 74.3054Z" fill="white"/>
<path d="M43.0492 75.1484C42.8908 74.9358 42.7041 74.7615 42.4796 74.6325C42.2551 74.5036 42.0069 74.4056 41.7374 74.3364C41.4751 74.26 41.2269 74.1835 41.0024 74.0928C40.7708 74.002 40.5817 73.8874 40.4328 73.7441C40.2744 73.608 40.2012 73.4026 40.2012 73.1303C40.2012 73.0396 40.2248 72.9321 40.2602 72.8198C40.2981 72.7052 40.3642 72.6001 40.4564 72.5022C40.5533 72.4114 40.681 72.3279 40.8322 72.2682C40.9906 72.2084 41.1844 72.1702 41.4184 72.1702C41.6665 72.1702 41.8911 72.2228 42.0873 72.3231C42.274 72.4282 42.4252 72.5571 42.5292 72.7243L43.2194 72.0938C42.9878 71.7977 42.7089 71.609 42.4016 71.5087C42.0872 71.4179 41.7634 71.3726 41.4184 71.3726C41.0426 71.3726 40.7211 71.4251 40.4564 71.5469C40.187 71.6615 39.9695 71.8048 39.7946 71.9792C39.6221 72.1464 39.5016 72.335 39.4188 72.5476C39.3432 72.753 39.2983 72.9488 39.2983 73.1327C39.2983 73.5435 39.381 73.8683 39.5299 74.1119C39.6812 74.3555 39.875 74.5442 40.0995 74.6875C40.3241 74.8307 40.5722 74.9382 40.8346 75.0218C41.104 75.0982 41.3522 75.1818 41.5767 75.2726C41.8013 75.3562 41.9903 75.4612 42.1463 75.5902C42.2976 75.7192 42.3709 75.9007 42.3709 76.1443C42.3709 76.3186 42.3331 76.4715 42.2574 76.6004C42.1818 76.7366 42.0849 76.844 41.9643 76.9348C41.8438 77.0256 41.7091 77.0876 41.5578 77.133C41.416 77.1784 41.2718 77.2023 41.13 77.2023C40.8748 77.2023 40.6266 77.1497 40.395 77.0351C40.1539 76.93 39.9601 76.7533 39.8088 76.5264L39.1116 77.133C39.3219 77.4292 39.6079 77.6489 39.9672 77.7922C40.3193 77.9283 40.7022 78.0047 41.1017 78.0047C41.4018 78.0047 41.6878 77.9594 41.9502 77.8686C42.2125 77.7778 42.4465 77.656 42.6403 77.4889C42.8365 77.3217 42.9854 77.1163 43.0988 76.8751C43.2194 76.6315 43.2714 76.3521 43.2714 76.0559C43.2737 75.6642 43.1981 75.3681 43.0492 75.1484Z" fill="white"/>
<path d="M51.0356 73.3717C50.8701 72.9704 50.6456 72.6217 50.3596 72.3161C50.0736 72.0199 49.7356 71.793 49.3315 71.6187C48.9344 71.4515 48.4971 71.3679 48.0173 71.3679C47.5446 71.3679 47.1098 71.4515 46.7032 71.6187C46.3062 71.793 45.9611 72.0199 45.6751 72.3161C45.3891 72.6194 45.1717 72.968 45.0062 73.3717C44.8479 73.7729 44.7651 74.2147 44.7651 74.6852C44.7651 75.1557 44.8479 75.5879 45.0062 75.9987C45.1717 76.4 45.3891 76.7486 45.6751 77.0448C45.9611 77.3409 46.3062 77.575 46.7032 77.7421C47.1098 77.9165 47.5446 78.0001 48.0173 78.0001C48.4971 78.0001 48.9344 77.9165 49.3315 77.7421C49.738 77.575 50.0736 77.3409 50.3596 77.0448C50.6456 76.7486 50.8701 76.4 51.0356 75.9987C51.1939 75.5879 51.2766 75.1557 51.2766 74.6852C51.2766 74.2147 51.1939 73.7753 51.0356 73.3717ZM50.2107 75.6548C50.0972 75.9653 49.9413 76.2304 49.7309 76.4597C49.5276 76.6794 49.2795 76.8609 48.9958 76.9994C48.7028 77.1284 48.3813 77.1976 48.0197 77.1976C47.6675 77.1976 47.3437 77.1284 47.0507 76.9994C46.7647 76.8633 46.5165 76.6818 46.3085 76.4597C46.1053 76.2328 45.9493 75.9677 45.8358 75.6548C45.7224 75.3515 45.6704 75.0243 45.6704 74.6828C45.6704 74.3341 45.7224 74.0069 45.8358 73.7036C45.9493 73.4003 46.1053 73.1352 46.3085 72.9059C46.5189 72.6791 46.767 72.4952 47.0507 72.3662C47.3437 72.2301 47.6652 72.1608 48.0197 72.1608C48.379 72.1608 48.7028 72.2301 48.9958 72.3662C49.2818 72.4952 49.53 72.6767 49.7309 72.9059C49.9413 73.1328 50.0996 73.3979 50.2107 73.7036C50.3241 74.0069 50.3761 74.3341 50.3761 74.6828C50.3761 75.0267 50.3241 75.3515 50.2107 75.6548Z" fill="white"/>
<path d="M54.0088 77.0375V71.5278H53.1603V77.84H56.8758V77.0351H54.0088V77.0375Z" fill="white"/>
<path d="M62.1559 71.5278V75.3968C62.1559 75.595 62.1252 75.7908 62.0732 76.0034C62.0212 76.2159 61.9314 76.4142 61.8109 76.5885C61.6832 76.77 61.5249 76.9157 61.324 77.0279C61.1278 77.1426 60.882 77.1951 60.5889 77.1951C60.2888 77.1951 60.0406 77.1426 59.8468 77.0279C59.6435 76.9133 59.4875 76.77 59.3599 76.5885C59.2393 76.4142 59.1495 76.2159 59.0975 76.0034C59.0455 75.7908 59.0148 75.5926 59.0148 75.3968V71.5278H58.1734V75.5257C58.1734 75.8983 58.2325 76.2303 58.353 76.5336C58.4807 76.8297 58.6461 77.0877 58.8635 77.3074C59.081 77.5271 59.3363 77.7014 59.6364 77.8161C59.9295 77.9379 60.2438 77.9976 60.5889 77.9976C60.9269 77.9976 61.2413 77.9379 61.5343 77.8161C61.8345 77.7014 62.0898 77.5271 62.3072 77.3074C62.5246 77.0877 62.6901 76.8297 62.8177 76.5336C62.9383 76.2303 63.0044 75.8959 63.0044 75.5257V71.5278H62.1559Z" fill="white"/>
<path d="M64.5052 71.5278V72.3327H66.5166V77.84H67.3651V72.3327H69.3765V71.5278H64.5052Z" fill="white"/>
<path d="M70.9388 71.5278V77.84H71.7873V71.5278H70.9388Z" fill="white"/>
<path d="M79.9556 73.3717C79.7973 72.9704 79.5727 72.6217 79.2867 72.3161C79.0007 72.0199 78.6557 71.793 78.2586 71.6187C77.8615 71.4515 77.4172 71.3679 76.9445 71.3679C76.4647 71.3679 76.0274 71.4515 75.6304 71.6187C75.2333 71.793 74.8882 72.0199 74.6022 72.3161C74.3162 72.6194 74.0917 72.968 73.9333 73.3717C73.7679 73.7729 73.6852 74.2147 73.6852 74.6852C73.6852 75.1557 73.7679 75.5879 73.9333 75.9987C74.0917 76.4 74.3162 76.7486 74.6022 77.0448C74.8882 77.3409 75.2333 77.575 75.6304 77.7421C76.0274 77.9165 76.4647 78.0001 76.9445 78.0001C77.4172 78.0001 77.8615 77.9165 78.2586 77.7421C78.6557 77.575 79.0007 77.3409 79.2867 77.0448C79.5727 76.7486 79.7973 76.4 79.9556 75.9987C80.1211 75.5879 80.2038 75.1557 80.2038 74.6852C80.2038 74.2147 80.1211 73.7753 79.9556 73.3717ZM79.1284 75.6548C79.0149 75.9653 78.8589 76.2304 78.6557 76.4597C78.4453 76.6794 78.2042 76.8609 77.9135 76.9994C77.6275 77.1284 77.3061 77.1976 76.9445 77.1976C76.5852 77.1976 76.2614 77.1284 75.9754 76.9994C75.6824 76.8633 75.4342 76.6818 75.2333 76.4597C75.03 76.2328 74.8646 75.9677 74.7606 75.6548C74.6471 75.3515 74.588 75.0243 74.588 74.6828C74.588 74.3341 74.6471 74.0069 74.7606 73.7036C74.8646 73.4003 75.03 73.1352 75.2333 72.9059C75.4365 72.6791 75.6847 72.4952 75.9754 72.3662C76.2614 72.2301 76.5829 72.1608 76.9445 72.1608C77.3037 72.1608 77.6275 72.2301 77.9135 72.3662C78.2066 72.4952 78.4477 72.6767 78.6557 72.9059C78.8589 73.1328 79.0149 73.3979 79.1284 73.7036C79.2418 74.0069 79.3009 74.3341 79.3009 74.6828C79.3009 75.0267 79.2418 75.3515 79.1284 75.6548Z" fill="white"/>
<path d="M86.6586 71.5278V76.7175H86.6349L83.196 71.5278H82.0851V77.84H82.9337V72.6503H82.9478L86.4246 77.84H87.5047V71.5278H86.6586Z" fill="white"/>
<path d="M93.2126 75.1484C93.0543 74.9358 92.8676 74.7615 92.643 74.6325C92.4185 74.5036 92.1703 74.4056 91.9009 74.3364C91.6385 74.26 91.3904 74.1835 91.1658 74.0928C90.9413 74.002 90.7451 73.8874 90.5962 73.7441C90.4449 73.608 90.3646 73.4026 90.3646 73.1303C90.3646 73.0396 90.3882 72.9321 90.4237 72.8198C90.4615 72.7052 90.5277 72.6001 90.6198 72.5022C90.7167 72.4114 90.8444 72.3279 90.9956 72.2682C91.154 72.2084 91.3478 72.1702 91.5889 72.1702C91.83 72.1702 92.0545 72.2228 92.2507 72.3231C92.4374 72.4282 92.5887 72.5571 92.7021 72.7243L93.3852 72.0938C93.1535 71.7977 92.8746 71.609 92.5674 71.5087C92.253 71.4179 91.9292 71.3726 91.5912 71.3726C91.2084 71.3726 90.894 71.4251 90.6222 71.5469C90.3528 71.6615 90.1353 71.8048 89.9604 71.9792C89.795 72.1464 89.6673 72.335 89.5846 72.5476C89.509 72.753 89.4712 72.9488 89.4712 73.1327C89.4712 73.5435 89.5468 73.8683 89.6957 74.1119C89.847 74.3555 90.0408 74.5442 90.2653 74.6875C90.4898 74.8307 90.738 74.9382 91.0075 75.0218C91.2698 75.0982 91.518 75.1818 91.7425 75.2726C91.9671 75.3562 92.1632 75.4612 92.3121 75.5902C92.4634 75.7192 92.5437 75.9007 92.5437 76.1443C92.5437 76.3186 92.4988 76.4715 92.4232 76.6004C92.3476 76.7366 92.2507 76.844 92.1301 76.9348C92.0096 77.0256 91.8749 77.0876 91.7331 77.133C91.5818 77.1784 91.44 77.2023 91.2982 77.2023C91.0429 77.2023 90.8018 77.1497 90.5631 77.0351C90.322 76.93 90.1282 76.7533 89.977 76.5264L89.2797 77.133C89.4901 77.4292 89.7761 77.6489 90.1353 77.7922C90.4946 77.9283 90.8704 78.0047 91.2698 78.0047C91.57 78.0047 91.856 77.9594 92.1183 77.8686C92.3807 77.7778 92.6147 77.656 92.8085 77.4889C93.0046 77.3217 93.1535 77.1163 93.2741 76.8751C93.3875 76.6315 93.4395 76.3521 93.4395 76.0559C93.4395 75.6642 93.3639 75.3681 93.2126 75.1484Z" fill="white"/>
</svg>
